<?xml version="1.0" standalone="no"?>
<!DOCTYPE svg PUBLIC "-//W3C//DTD SVG 20010904//EN"
 "http://www.w3.org/TR/2001/REC-SVG-20010904/DTD/svg10.dtd">
<svg version="1.0" xmlns="http://www.w3.org/2000/svg"
 width="300.000000pt" height="198.000000pt" viewBox="0 0 300.000000 198.000000"
 preserveAspectRatio="xMidYMid meet">
<metadata>
Created by potrace 1.10, written by Peter Selinger 2001-2011
</metadata>
<g transform="translate(0.000000,198.000000) scale(0.100000,-0.100000)"
fill="#000000" stroke="none">
<path d="M1282 1494 c-73 -19 -107 -39 -159 -90 -62 -62 -94 -136 -100 -233
-4 -52 -2 -80 5 -85 8 -5 11 15 11 64 -1 57 4 82 25 123 53 109 162 185 302
210 46 9 63 15 50 20 -27 10 -75 7 -134 -9z"/>
<path d="M1660 1372 c-22 -42 -41 -81 -42 -87 -3 -13 34 -115 42 -115 3 0 12
22 19 50 7 27 16 52 21 55 4 2 13 -23 20 -57 l13 -61 29 58 29 57 -45 89 -45
89 -41 -78z m73 -51 c27 -60 21 -77 -16 -44 -18 17 -20 17 -37 -4 -34 -43 -42
6 -9 61 24 42 40 38 62 -13z"/>
<path d="M1491 1321 c-6 -25 -44 -113 -84 -196 -67 -139 -72 -155 -72 -215 0
-88 30 -147 99 -194 46 -32 106 -61 106 -52 0 2 -13 18 -30 36 -35 38 -47 88
-31 140 6 20 45 88 87 151 69 103 76 117 71 151 -8 60 -90 207 -123 221 -6 3
-16 -16 -23 -42z m104 -129 c21 -64 19 -83 -16 -133 -100 -143 -121 -181 -131
-239 -7 -33 -15 -60 -19 -60 -13 0 -49 52 -49 69 0 10 -4 21 -9 27 -25 25 -15
154 12 154 4 0 6 4 3 8 -3 5 9 35 26 68 17 32 49 95 71 138 l40 80 28 -34 c16
-18 35 -54 44 -78z"/>
<path d="M1858 1328 c-34 -43 -82 -136 -94 -182 -7 -29 11 -66 83 -168 102
-146 109 -210 34 -292 l-26 -28 25 7 c14 4 52 26 84 49 78 54 106 105 106 195
0 62 -5 76 -74 218 -66 134 -95 211 -88 236 5 20 -19 2 -50 -35z m42 -59 c0
-11 30 -73 93 -190 58 -108 67 -162 37 -241 -20 -55 -44 -87 -56 -75 -4 3 -10
27 -15 52 -12 65 -60 158 -99 195 -3 3 -20 28 -37 55 -32 50 -32 52 -19 101
18 69 64 138 82 123 8 -6 14 -15 14 -20z"/>
<path d="M1184 1242 c-1 -59 -5 -155 -9 -213 -7 -99 -6 -110 14 -153 34 -68
135 -153 226 -189 11 -4 1 9 -23 29 -58 49 -82 99 -82 172 0 74 22 149 67 231
l35 63 -43 44 c-51 52 -100 87 -149 108 l-35 14 -1 -106z m131 -8 c30 -30 55
-58 55 -63 0 -5 -12 -32 -26 -60 -35 -72 -54 -140 -58 -216 -2 -36 -8 -65 -13
-64 -35 5 -73 71 -78 135 -2 25 2 90 9 145 7 55 12 112 10 127 -9 75 21 74
101 -4z"/>
<path d="M2174 1326 c-28 -13 -80 -51 -115 -84 l-64 -61 37 -69 c94 -173 89
-309 -15 -397 -53 -46 -39 -44 43 4 70 42 127 98 156 153 21 40 24 141 7 273
-7 57 -8 110 -2 144 4 30 7 56 6 58 -2 1 -26 -8 -53 -21z m20 -123 c18 -249
19 -302 5 -316 -8 -8 -21 -24 -29 -36 -15 -21 -40 -29 -40 -12 0 8 -16 124
-23 171 -1 8 -17 43 -35 77 -17 34 -32 69 -32 78 0 21 109 125 131 125 14 0
18 -15 23 -87z"/>
<path d="M1691 1180 c-1 -28 -68 -156 -114 -218 -54 -74 -71 -120 -64 -177 6
-55 38 -100 89 -126 62 -31 171 -24 221 14 47 36 67 75 67 131 0 58 -11 81
-87 193 -35 50 -74 116 -88 145 -13 29 -24 46 -24 38z m49 -133 c95 -142 120
-190 120 -235 0 -58 -25 -98 -78 -123 -108 -53 -242 15 -242 122 0 32 42 133
60 144 5 3 28 37 50 75 23 39 44 70 48 70 4 0 23 -24 42 -53z"/>
<path d="M512 1099 c-118 -33 -206 -104 -258 -206 -27 -54 -29 -66 -29 -173 0
-113 1 -116 37 -190 74 -147 177 -223 369 -271 71 -18 102 -21 214 -16 196 8
372 55 600 159 259 118 272 123 367 123 85 0 86 0 50 13 -60 22 -163 10 -282
-33 -416 -147 -541 -177 -745 -178 -149 -1 -219 13 -332 68 -87 43 -148 101
-188 181 -27 53 -30 68 -30 154 0 74 4 103 19 130 74 139 225 220 416 222 102
2 145 -5 211 -33 60 -26 77 -18 21 10 -115 59 -313 77 -440 40z m-2 -752 c10
-4 8 -6 -7 -6 -16 -1 -23 5 -23 17 0 10 3 13 8 6 4 -6 14 -14 22 -17z m50 -19
c0 -5 10 -8 22 -6 11 2 23 -3 25 -9 6 -16 -18 -17 -52 -1 -26 12 -36 42 -10
32 8 -4 15 -10 15 -16z m155 -29 c12 0 15 -3 8 -7 -14 -9 -103 -3 -103 7 0 5
17 6 38 4 20 -2 46 -4 57 -4z m65 -19 c0 -4 -13 -7 -30 -8 -24 0 -27 2 -18 12
12 13 48 10 48 -4z m134 -1 c-8 -14 -24 -10 -24 6 0 9 6 12 15 9 8 -4 12 -10
9 -15z m-49 1 c-3 -5 -22 -10 -41 -10 -19 0 -34 5 -34 10 0 6 18 10 41 10 24
0 38 -4 34 -10z"/>
<path d="M1040 970 c-19 -4 -71 -15 -115 -24 -79 -17 -159 -15 -196 5 -27 14
-30 -2 -7 -33 29 -42 158 -135 232 -168 79 -36 194 -65 311 -79 128 -15 137
-14 80 13 -27 13 -71 42 -96 64 -52 46 -109 145 -109 190 0 40 -25 48 -100 32z
m54 -26 c9 -3 16 -11 16 -16 0 -23 60 -137 89 -168 38 -42 39 -50 4 -49 -38 1
-140 23 -149 32 -4 4 -15 7 -25 7 -37 0 -249 128 -249 151 0 5 21 9 48 9 26 1
85 9 132 19 97 22 112 23 134 15z"/>
<path d="M2278 973 c-12 -3 -18 -14 -18 -36 0 -86 -117 -224 -225 -266 -46
-17 97 -4 220 20 163 33 291 97 399 201 49 47 56 80 13 56 -31 -17 -161 -14
-232 4 -73 20 -134 28 -157 21z m148 -43 c44 -11 105 -20 137 -20 31 0 57 -4
57 -10 0 -12 -103 -90 -118 -90 -7 0 -12 -4 -12 -10 0 -5 -5 -10 -10 -10 -6 0
-29 -9 -53 -20 -47 -21 -131 -45 -201 -55 -57 -9 -59 3 -12 62 18 23 38 56 45
73 6 16 16 43 22 59 10 27 23 37 55 40 6 0 47 -8 90 -19z"/>
</g>
</svg>
